<?xml version="1.0" encoding="UTF-8" standalone="no"?>
<!-- Creator: fig2dev Version 3.2 Patchlevel 5e -->
<!-- CreationDate: Thu Nov 26 13:11:31 2015 -->
<!-- Magnification: 1.050 -->
<svg xmlns:dc="http://purl.org/dc/elements/1.1/" xmlns:cc="http://creativecommons.org/ns#" xmlns:rdf="http://www.w3.org/1999/02/22-rdf-syntax-ns#" xmlns:svg="http://www.w3.org/2000/svg" xmlns="http://www.w3.org/2000/svg" xmlns:sodipodi="http://sodipodi.sourceforge.net/DTD/sodipodi-0.dtd" xmlns:inkscape="http://www.inkscape.org/namespaces/inkscape" width="407.8287" height="264.88751" viewBox="222 9644 5377.9836 3502.4014" id="svg2" version="1.1" inkscape:version="0.48.5 r10040" sodipodi:docname="torus-rf-oa.svg">
  <metadata id="metadata110">
    <rdf:RDF>
      <cc:Work rdf:about="">
        <dc:format>image/svg+xml</dc:format>
        <dc:type rdf:resource="http://purl.org/dc/dcmitype/StillImage"/>
      </cc:Work>
    </rdf:RDF>
  </metadata>
  <defs id="defs108"/>
  <sodipodi:namedview pagecolor="#ffffff" bordercolor="#666666" borderopacity="1" objecttolerance="10" gridtolerance="10" guidetolerance="10" inkscape:pageopacity="0" inkscape:pageshadow="2" inkscape:window-width="1201" inkscape:window-height="610" id="namedview106" showgrid="false" units="mm" fit-margin-top="2" fit-margin-left="2" fit-margin-right="2" fit-margin-bottom="2" inkscape:zoom="0.93650794" inkscape:cx="185.1901" inkscape:cy="132.40594" inkscape:window-x="0" inkscape:window-y="0" inkscape:window-maximized="0" inkscape:current-layer="svg2"/>
  <g style="fill:none;stroke-width:0.025in" id="g4" transform="translate(77.700863,85.700785)">
    <!-- Line -->
    <!--  polyline  -->
    <polyline points="2087,11446 2125,11456 2163,11470 2205,11479 2248,11489 2290,11493 2333,11503 2380,11512 2423,11517 2470,11522 2517,11527 2564,11531 2612,11535 2659,11541 2706,11541 2753,11545 2799,11545 2848,11545 2900,11545 2946,11545 2994,11541 3041,11541 3089,11535 3135,11531 3183,11527 3230,11522 3273,11512 3320,11508 3363,11498 3405,11489 3448,11479 3490,11470 3528,11460 3571,11451 3608,11442 3646,11427 3679,11418 3712,11404 3745,11390 3778,11380 3807,11366 3835,11352 3864,11338 3887,11328 3911,11314 3930,11300 3949,11290 3967,11276 3982,11267 3996,11257 4005,11248 4015,11238 4024,11229 4029,11224 4034,11220 4034,11215 4038,11215 " style="stroke:#000000;stroke-width:8;stroke-linecap:butt;stroke-linejoin:round" id="polyline6"/>
    <!-- Line -->
    <!--  polyline  -->
    <polyline points="3914,11309 3892,11295 3868,11286 3845,11271 3816,11257 3788,11243 3755,11234 3725,11220 3689,11205 3656,11196 3618,11182 3580,11172 3542,11163 3504,11149 3462,11139 3419,11130 3377,11125 3334,11116 3287,11106 3245,11101 3197,11097 3150,11092 3103,11087 3056,11083 3008,11078 2961,11078 2914,11072 2867,11072 2819,11072 2767,11072 2720,11072 2672,11078 2626,11078 2578,11083 2531,11087 2483,11092 2437,11097 2394,11106 2347,11111 2304,11120 2262,11130 2219,11139 2177,11149 2139,11158 2097,11168 2059,11177 2020,11191 1988,11201 1955,11215 1922,11229 1889,11238 1860,11253 1832,11267 1804,11281 1780,11290 1756,11304 " style="stroke:#000000;stroke-width:8;stroke-linecap:butt;stroke-linejoin:round" id="polyline8"/>
    <!-- Line -->
    <!--  polyline  -->
    <polyline points="1629,11215 1634,11220 1638,11224 1643,11229 1648,11234 1657,11243 1667,11253 1681,11262 1695,11271 1714,11286 1733,11295 1752,11309 1775,11323 1799,11333 1823,11346 1851,11361 1879,11375 1912,11385 1941,11399 1977,11413 2012,11423 2049,11437 2087,11446 " style="stroke:#000000;stroke-width:8;stroke-linecap:butt;stroke-linejoin:round" id="polyline10"/>
    <!-- Line -->
    <!--  polyline  -->
    <polyline points="1690,12807 1756,12826 1823,12845 1889,12859 1955,12873 2020,12887 2092,12901 2158,12911 2229,12920 2295,12930 2366,12939 2437,12944 2508,12949 2574,12953 2645,12958 2714,12963 2786,12963 2857,12963 2928,12963 2999,12958 3070,12958 3141,12953 3207,12949 3278,12939 3349,12934 3415,12925 3486,12916 3552,12901 3623,12892 3689,12878 3755,12864 3821,12849 3887,12831 3953,12816 4019,12797 4081,12774 4146,12755 4208,12731 4270,12708 4331,12684 4388,12656 4449,12632 4506,12604 4563,12571 4619,12538 4676,12504 4728,12471 4780,12438 4832,12401 4883,12358 4936,12316 4983,12272 5030,12230 5072,12183 5120,12131 5158,12079 5199,12027 5238,11966 5271,11909 5304,11848 5333,11782 5361,11716 5385,11649 5399,11579 5418,11508 5427,11432 5432,11356 5432,11286 5427,11210 5418,11139 5408,11064 5388,10993 5366,10927 5342,10856 5314,10794 5286,10728 5248,10671 5215,10609 5172,10558 5134,10506 5087,10454 5045,10407 4997,10360 4950,10317 4903,10275 4851,10232 4798,10194 4747,10157 4695,10123 4638,10090 4582,10057 4525,10029 4468,9996 4407,9968 4350,9944 4289,9920 4227,9892 4166,9872 4104,9849 4038,9830 3977,9812 3911,9793 3845,9774 3778,9760 3712,9745 3646,9731 3575,9717 3509,9708 3438,9698 3372,9689 3301,9679 3230,9675 3160,9670 3093,9665 3023,9660 2952,9656 2881,9656 2810,9656 2739,9656 2668,9660 2597,9660 2527,9665 2460,9670 2389,9679 2319,9683 2253,9694 2182,9703 2115,9717 2045,9727 1977,9741 1912,9755 1846,9769 1780,9788 1714,9802 1648,9821 1586,9845 1520,9864 1459,9887 1397,9911 1336,9934 1279,9963 1218,9986 1161,10015 1104,10048 1048,10081 991,10114 939,10146 887,10180 835,10218 783,10260 731,10303 684,10345 637,10388 594,10435 546,10487 509,10539 467,10591 429,10653 396,10709 363,10771 334,10837 306,10903 282,10969 268,11040 249,11111 240,11186 235,11262 235,11333 240,11409 249,11479 259,11555 278,11626 301,11692 325,11763 353,11824 382,11890 419,11947 453,12008 495,12060 533,12112 580,12164 623,12212 670,12259 717,12301 764,12344 816,12386 868,12424 920,12462 972,12495 1029,12528 1086,12561 1142,12590 1198,12623 1260,12651 1317,12675 1378,12698 1440,12727 1501,12745 1563,12769 1629,12788 1690,12807 " style="stroke:#000000;stroke-width:8;stroke-linecap:butt;stroke-linejoin:round" id="polyline12"/>
    <!-- Line -->
    <!--  polyline  -->
    <polyline points="235,11309 235,11352 240,11390 245,11432 254,11470 268,11512 282,11555 297,11593 316,11631 339,11673 363,11711 391,11749 419,11786 448,11824 481,11862 519,11900 556,11933 599,11971 642,12004 684,12041 731,12075 777,12108 831,12136 882,12169 939,12197 996,12226 1053,12254 1114,12282 1175,12311 1241,12334 1308,12358 1374,12382 1440,12405 1511,12429 1582,12448 1653,12467 1728,12486 1804,12500 1879,12519 1955,12533 2030,12546 2111,12556 2186,12566 2267,12575 2347,12585 2427,12594 2508,12599 2588,12604 2668,12604 2753,12608 2834,12608 2914,12608 2999,12604 3079,12604 3160,12599 3240,12594 3320,12585 3400,12575 3481,12566 3556,12556 3637,12546 3712,12533 3788,12519 3864,12500 3939,12486 4015,12467 4086,12448 4156,12429 4227,12405 4293,12382 4360,12358 4426,12334 4492,12311 4553,12282 4615,12254 4671,12226 4728,12197 4785,12169 4837,12136 4889,12108 4936,12075 4983,12041 5026,12004 5068,11971 5111,11933 5149,11900 5186,11862 5219,11824 5248,11786 5276,11749 5304,11711 5328,11673 5352,11631 5371,11593 5385,11555 5399,11512 5413,11470 5422,11432 5427,11390 5432,11309 " style="stroke:#000000;stroke-width:8;stroke-linecap:butt;stroke-linejoin:round" id="polyline14"/>
    <!-- Line -->
    <!--  polyline  -->
    <polyline points="471,10586 448,10624 424,10662 405,10700 386,10738 372,10775 358,10813 349,10851 339,10894 334,10931 330,10969 330,11012 330,11049 334,11087 344,11125 353,11168 363,11205 377,11243 396,11281 415,11319 434,11356 457,11394 481,11432 509,11470 542,11508 575,11541 608,11579 646,11612 684,11645 727,11678 769,11711 816,11744 864,11777 916,11805 967,11834 1019,11867 1071,11890 1128,11919 1190,11947 1251,11971 1312,11994 1374,12018 1440,12041 1506,12065 1572,12083 1638,12103 1709,12122 1780,12136 1851,12155 1927,12169 1997,12183 2073,12193 2149,12207 2224,12216 2300,12226 2380,12235 2456,12240 2536,12245 2612,12249 2692,12254 2767,12254 2848,12254 2928,12254 3004,12249 3084,12249 3160,12245 3240,12235 3315,12230 3396,12221 3471,12212 3547,12202 3623,12193 3693,12179 3769,12164 3840,12150 3911,12131 3982,12112 4052,12094 4119,12075 4185,12056 4251,12032 4317,12013 4377,11985 4440,11961 4501,11938 4558,11909 4615,11881 4667,11853 4719,11824 4771,11796 4823,11763 4865,11734 4912,11701 4955,11668 4997,11635 5035,11597 5072,11564 5106,11527 5139,11493 5167,11456 5196,11418 5219,11380 5243,11346 5262,11304 5281,11267 5295,11229 5309,11191 5319,11153 5328,11111 5333,11072 5337,11035 5337,10997 5337,10955 5333,10917 5323,10879 5314,10837 5304,10798 5290,10761 5271,10723 5252,10686 5234,10648 5196,10586 " style="stroke:#000000;stroke-width:8;stroke-linecap:butt;stroke-linejoin:round" id="polyline16"/>
    <!-- Line -->
    <!--  polyline  -->
    <polyline points="2834,9656 2763,9656 2692,9656 2621,9660 2550,9665 2483,9670 2413,9675 2342,9683 2276,9689 2205,9698 2139,9712 2073,9722 2007,9736 1941,9750 1879,9764 1813,9779 1752,9793 1690,9812 1629,9830 1572,9849 1516,9868 1459,9892 1402,9916 1350,9934 1298,9958 1246,9986 1198,10010 1152,10034 1104,10062 1062,10090 1019,10119 977,10146 939,10175 901,10209 868,10237 835,10270 802,10298 774,10331 745,10364 722,10398 698,10431 679,10464 660,10497 642,10534 627,10567 618,10601 608,10638 599,10671 594,10709 590,10742 590,10780 590,10813 594,10846 599,10883 608,10917 618,10955 627,10988 642,11021 660,11059 679,11092 698,11125 722,11158 745,11191 774,11224 802,11257 835,11286 868,11319 901,11346 939,11380 977,11409 1019,11437 1062,11465 1104,11493 1152,11522 1198,11545 1246,11569 1298,11597 1350,11620 1402,11645 1459,11664 1516,11687 1572,11706 1634,11725 1690,11744 1752,11763 1813,11777 1879,11791 1941,11805 2007,11820 2073,11834 2139,11843 2209,11857 2276,11867 2342,11871 2413,11881 2483,11886 2555,11890 2621,11895 2692,11900 2763,11900 2834,11900 2904,11900 2975,11900 3046,11895 3117,11890 3183,11886 3254,11881 3325,11871 3391,11867 3462,11857 3528,11843 3594,11834 3660,11820 3725,11805 3788,11791 3854,11777 3914,11763 3977,11744 4038,11725 4095,11706 4152,11687 4208,11664 4265,11640 4317,11620 4369,11597 4420,11569 4468,11545 4515,11522 4563,11493 4605,11465 4648,11437 4690,11409 4728,11380 4766,11346 4798,11319 4832,11286 4865,11257 4893,11224 4922,11191 4945,11158 4969,11125 4988,11092 5007,11059 5026,11021 5040,10988 5049,10955 5059,10917 5068,10883 5072,10846 5078,10813 5078,10775 5078,10742 5072,10709 5068,10671 5059,10638 5049,10601 5040,10567 5026,10534 5007,10497 4988,10464 4969,10431 4945,10398 4922,10364 4893,10331 4865,10298 4832,10270 4798,10237 4766,10209 4728,10175 4690,10146 4648,10119 4605,10090 4563,10062 4515,10034 4468,10010 4420,9986 4369,9958 4317,9934 4265,9911 4208,9892 4152,9868 4095,9849 4034,9830 3977,9812 3914,9793 3854,9779 3788,9764 3725,9750 3660,9736 3594,9722 3528,9712 3457,9698 3391,9689 3325,9683 3254,9675 3183,9670 3112,9665 3046,9660 2975,9656 2834,9656 " style="stroke:#000000;stroke-width:8;stroke-linecap:butt;stroke-linejoin:round" id="polyline18"/>
    <!-- Line -->
    <!--  polyline  -->
    <polyline points="1889,11512 1941,11527 1993,11541 2045,11555 2101,11564 2158,11579 2209,11588 2267,11597 2323,11607 2385,11612 2441,11620 2498,11626 2560,11631 2616,11635 2678,11635 2734,11640 2796,11640 2853,11640 2914,11640 2971,11640 3032,11635 3089,11631 3150,11626 3207,11620 3264,11616 3325,11607 3382,11602 3438,11593 3490,11583 3547,11569 3604,11560 3656,11545 3708,11531 3760,11517 3812,11503 3864,11489 3911,11470 3958,11456 4005,11437 4052,11418 4100,11399 4142,11375 4185,11356 4223,11333 4265,11314 4303,11290 4341,11267 4374,11243 4407,11220 4440,11191 4468,11168 4501,11144 4525,11116 4553,11087 4577,11064 4596,11035 4619,11007 4638,10979 4651,10950 4667,10922 4681,10894 4695,10865 4704,10832 4709,10804 4719,10775 4719,10747 4723,10714 4723,10686 4723,10657 4719,10624 4714,10596 4704,10567 4695,10539 4686,10511 4671,10478 4657,10449 4643,10420 4624,10393 4605,10364 4582,10341 4558,10312 4534,10284 4506,10256 4478,10232 4449,10204 4416,10180 4383,10157 4350,10133 4312,10109 4279,10086 4237,10062 4199,10043 4156,10020 4114,10001 4067,9982 4024,9963 3977,9944 3930,9925 3878,9911 3830,9892 3778,9878 3725,9864 3675,9849 3623,9835 3566,9826 3509,9812 3457,9802 3400,9793 3344,9783 3282,9779 3226,9769 3169,9764 3108,9760 3051,9755 2988,9755 2933,9750 2871,9750 2815,9750 2753,9750 2697,9755 2635,9755 2578,9760 2517,9764 2460,9769 2404,9774 2342,9783 2286,9793 2229,9802 2177,9812 2120,9821 2064,9830 2012,9845 1960,9859 1908,9872 1856,9887 1804,9901 1756,9920 1709,9939 1662,9953 1615,9972 1567,9991 1525,10015 1482,10034 1445,10057 1402,10076 1364,10100 1327,10123 1293,10146 1260,10171 1227,10199 1198,10223 1166,10251 1142,10275 1114,10303 1090,10331 1071,10355 1048,10383 1029,10412 1015,10440 1001,10468 986,10501 972,10530 963,10558 958,10586 949,10615 949,10648 944,10676 944,10705 944,10733 949,10766 953,10794 963,10823 972,10851 982,10883 996,10912 1009,10941 1024,10969 1043,10997 1062,11026 1086,11054 1109,11078 1133,11106 1161,11134 1190,11158 1218,11186 1251,11210 1283,11234 1317,11257 1355,11281 1388,11304 1430,11328 1468,11352 1511,11371 1553,11390 1601,11409 1643,11432 1690,11446 1738,11465 1788,11484 1837,11498 1889,11512 " style="stroke:#000000;stroke-width:8;stroke-linecap:butt;stroke-linejoin:round" id="polyline20"/>
    <!-- Line -->
    <!--  polyline  -->
    <polyline points="2064,11442 2106,11456 2149,11465 2196,11475 2238,11484 2286,11493 2328,11503 2375,11512 2423,11517 2465,11522 2512,11527 2560,11531 2612,11535 2659,11541 2706,11541 2753,11545 2799,11545 2848,11545 2900,11545 2946,11545 2994,11541 3041,11535 3089,11535 3135,11531 3183,11527 3230,11517 3278,11512 3325,11508 3367,11498 3415,11489 3457,11479 3500,11470 3547,11460 3589,11446 3627,11432 3670,11423 3708,11409 3750,11394 3788,11380 3826,11366 3859,11346 3897,11333 3930,11314 3963,11295 3996,11281 4029,11262 4057,11243 4086,11224 4114,11201 4138,11182 4161,11163 4185,11139 4208,11120 4232,11097 4251,11072 4265,11054 4284,11030 4298,11007 4312,10983 4326,10960 4335,10936 4345,10912 4355,10889 4360,10865 4364,10841 4369,10818 4369,10794 4369,10771 4369,10747 4364,10723 4360,10700 4355,10671 4345,10648 4341,10624 4326,10601 4317,10577 4303,10558 4289,10534 4275,10511 4256,10487 4237,10464 4218,10445 4194,10420 4171,10402 4146,10379 4123,10360 4095,10341 4067,10322 4038,10303 4005,10284 3977,10265 3944,10246 3906,10227 3872,10213 3835,10194 3802,10180 3760,10166 3722,10152 3683,10138 3641,10123 3604,10114 3561,10100 3519,10090 3471,10081 3429,10071 3382,10062 3339,10053 3292,10043 3245,10038 3202,10034 3155,10029 3108,10024 3056,10020 3008,10015 2961,10015 2914,10010 2867,10010 2819,10010 2767,10010 2720,10010 2672,10015 2626,10020 2578,10020 2531,10024 2483,10029 2437,10038 2389,10043 2342,10048 2300,10057 2253,10067 2209,10076 2167,10086 2120,10095 2078,10109 2040,10123 1997,10133 1960,10146 1917,10161 1879,10175 1842,10190 1808,10209 1771,10223 1738,10242 1704,10260 1671,10275 1638,10293 1610,10312 1582,10331 1553,10355 1530,10374 1506,10393 1482,10416 1459,10435 1435,10459 1416,10483 1402,10501 1383,10525 1369,10549 1355,10572 1341,10596 1331,10620 1322,10643 1312,10667 1308,10690 1303,10714 1298,10738 1298,10761 1298,10785 1298,10809 1303,10832 1308,10856 1312,10883 1322,10908 1327,10931 1341,10955 1350,10979 1364,10997 1378,11021 1393,11045 1412,11068 1430,11092 1449,11111 1472,11134 1497,11153 1520,11177 1544,11196 1572,11215 1601,11234 1629,11253 1662,11271 1690,11290 1723,11309 1761,11328 1794,11342 1832,11361 1865,11375 1908,11390 1945,11404 1983,11418 2026,11432 2064,11442 " style="stroke:#000000;stroke-width:8;stroke-linecap:butt;stroke-linejoin:round" id="polyline22"/>
    <!-- Line -->
    <!--  polyline  -->
    <polyline points="4038,11215 4048,11196 4062,11177 4071,11158 4081,11139 4090,11120 4095,11097 4100,11078 4104,11059 4109,11040 4109,11021 4109,10997 4109,10979 4104,10960 4104,10941 4100,10917 4095,10898 4086,10879 4076,10860 4067,10841 4057,10823 4043,10804 4034,10785 4019,10766 3999,10747 3986,10728 3967,10709 3949,10690 3930,10676 3906,10657 3887,10643 3864,10624 3835,10609 3812,10591 3788,10577 3760,10563 3731,10549 3703,10534 3670,10520 3641,10506 3608,10497 3580,10483 3547,10473 3509,10464 3476,10449 3443,10440 3405,10431 3372,10426 3334,10416 3297,10407 3259,10402 3220,10393 3183,10388 3145,10383 3103,10379 3065,10374 3027,10374 2985,10369 2946,10369 2904,10364 2867,10364 2824,10364 2786,10364 2744,10364 2706,10369 2668,10369 2626,10374 2588,10379 2550,10379 2508,10383 2470,10393 2432,10398 2394,10402 2356,10412 2319,10416 2286,10426 2248,10435 2215,10445 2177,10454 2144,10464 2111,10478 2078,10487 2045,10501 2016,10511 1983,10525 1955,10539 1927,10553 1898,10567 1870,10582 1846,10601 1823,10615 1799,10629 1775,10648 1752,10662 1733,10681 1714,10700 1695,10714 1676,10733 1662,10752 1643,10771 1629,10790 1619,10809 1605,10827 1596,10846 1586,10865 1577,10889 1572,10908 1567,10927 1563,10945 1558,10964 1558,10988 1558,11007 1558,11026 1563,11045 1563,11068 1567,11087 1572,11106 1582,11125 1591,11144 1601,11163 1610,11182 1629,11215 " style="stroke:#000000;stroke-width:8;stroke-linecap:butt;stroke-linejoin:round" id="polyline24"/>
    <!-- Line -->
    <!--  polyline  -->
    <polyline points="4005,11234 3999,11215 3996,11201 3986,11182 3977,11163 3967,11144 3958,11125 3944,11111 3930,11092 3914,11072 3901,11059 3887,11040 3868,11026 3849,11007 3830,10993 3812,10979 3788,10964 3769,10945 3745,10931 3722,10917 3693,10903 3670,10894 3641,10879 3613,10865 3585,10856 3556,10841 3528,10832 3500,10823 3467,10809 3434,10798 3400,10790 3367,10785 3334,10775 3301,10766 3268,10761 3235,10752 3197,10747 3164,10742 3127,10738 3093,10733 3056,10728 3018,10728 2980,10723 2946,10723 2909,10719 2871,10719 2834,10719 2796,10719 2758,10719 2720,10723 2687,10723 2649,10728 2612,10728 2574,10733 2541,10738 2503,10742 2470,10747 2432,10752 2398,10761 2366,10766 2333,10775 2300,10785 2267,10790 2234,10798 2201,10809 2167,10823 2139,10832 2111,10841 2082,10856 2054,10865 2026,10879 1997,10894 1974,10903 1945,10917 1922,10931 1898,10945 1879,10964 1856,10979 1837,10993 1818,11007 1799,11026 1780,11040 1766,11059 1752,11072 1738,11092 1723,11111 1709,11125 1700,11144 1690,11163 1681,11182 1671,11201 1667,11215 1662,11234 " style="stroke:#000000;stroke-width:8;stroke-linecap:butt;stroke-linejoin:round" id="polyline26"/>
    <!-- Line -->
    <!--  polyline  -->
    <polyline points="3934,11295 3914,11276 3892,11262 3868,11243 3845,11229 3821,11210 3797,11196 3769,11182 3741,11168 3712,11153 3683,11139 3651,11125 3623,11116 3589,11101 3556,11092 3523,11078 3490,11068 3453,11059 3419,11049 3382,11040 3349,11030 3311,11026 3273,11016 3235,11012 3197,11002 3160,10997 3117,10993 3079,10988 3041,10988 2999,10983 2961,10983 2923,10979 2881,10979 2843,10979 2799,10979 2763,10979 2720,10979 2682,10983 2640,10983 2602,10988 2564,10993 2522,10997 2483,11002 2446,11007 2408,11016 2371,11021 2333,11030 2295,11035 2262,11045 2224,11054 2191,11064 2158,11078 2120,11087 2087,11097 2059,11111 2026,11120 1997,11134 1964,11149 1935,11163 1908,11177 1879,11191 1856,11205 1832,11224 1804,11238 1780,11253 1761,11271 1738,11290 " style="stroke:#000000;stroke-width:8;stroke-linecap:butt;stroke-linejoin:round" id="polyline28"/>
    <!-- Line -->
    <!--  polyline  -->
    <polyline points="2834,11072 " style="stroke:#000000;stroke-width:8;stroke-linecap:butt;stroke-linejoin:round" id="polyline30"/>
    <!-- Line -->
    <!--  polyline  -->
    <polyline points="471,12032 500,12070 528,12108 561,12141 594,12179 632,12212 670,12249 712,12282 755,12316 802,12344 845,12377 897,12410 949,12438 1001,12467 1053,12495 1109,12523 1166,12552 1227,12575 1289,12599 1350,12623 1416,12646 1482,12670 1549,12689 1615,12708 1686,12727 1756,12745 1827,12764 1898,12779 1974,12793 2045,12802 2120,12816 2196,12826 2271,12835 2352,12845 2427,12849 2508,12859 2583,12864 2664,12864 2739,12868 2819,12868 2900,12868 2975,12864 3056,12864 3131,12859 3212,12854 3287,12845 3367,12840 3443,12831 3519,12820 3594,12807 3670,12797 3741,12783 3816,12769 3887,12750 3958,12735 4029,12717 4095,12698 4161,12675 4227,12656 4293,12632 4355,12608 4416,12585 4478,12561 4539,12533 4596,12504 4648,12476 4700,12448 4752,12420 4804,12391 4851,12358 4898,12325 4941,12292 4983,12259 5021,12226 5059,12193 5092,12155 5125,12122 5158,12083 5196,12032 " style="stroke:#000000;stroke-width:8;stroke-linecap:butt;stroke-linejoin:round" id="polyline32"/>
    <!-- Line -->
    <!--  polyline  -->
    <polyline points="1690,12807 1681,12807 1676,12802 1667,12797 1657,12793 1648,12788 1638,12779 1634,12774 1624,12764 1619,12760 1610,12750 1605,12741 1596,12731 1591,12717 1586,12708 1582,12693 1572,12684 1567,12670 1563,12656 1563,12642 1558,12627 1553,12613 1549,12599 1549,12580 1544,12566 1539,12546 1539,12533 1539,12514 1534,12495 1534,12476 1534,12457 1534,12438 1534,12420 1534,12401 1534,12382 1539,12363 1539,12339 1539,12320 1544,12301 1544,12278 1549,12259 1549,12235 1553,12216 1558,12193 1563,12174 1567,12150 1572,12127 1577,12108 1582,12083 1586,12065 1596,12041 1601,12023 1605,11998 1615,11980 1619,11956 1629,11938 1634,11919 1643,11895 1653,11876 1662,11857 1671,11838 1676,11815 1686,11796 1695,11777 1704,11763 1714,11744 1723,11725 1733,11706 1746,11692 1756,11673 1766,11659 1775,11645 1785,11626 1799,11612 1808,11597 1818,11588 1832,11574 1842,11560 1851,11550 1865,11535 1875,11527 1884,11517 1898,11508 1908,11498 1917,11489 1931,11484 1941,11475 1950,11470 1964,11465 1974,11460 1983,11456 1997,11451 2007,11446 2016,11446 2026,11442 2035,11442 2045,11442 2059,11442 2068,11442 2087,11446 " style="stroke:#000000;stroke-width:8;stroke-linecap:butt;stroke-linejoin:round" id="polyline34"/>
    <!-- Line -->
    <!--  polyline  -->
    <polyline points="2059,12897 2054,12892 2049,12892 2040,12887 2035,12882 2030,12878 2026,12873 2016,12868 2012,12864 2007,12854 2002,12849 1997,12840 1993,12831 1988,12820 1983,12812 1977,12802 1977,12788 1974,12779 1969,12764 1964,12755 1964,12741 1960,12727 1960,12712 1955,12693 1955,12679 1950,12665 1950,12646 1950,12632 1945,12613 1945,12594 1945,12575 1945,12556 1945,12538 1945,12519 1945,12500 1945,12481 1945,12462 1945,12438 1950,12420 1950,12396 1950,12377 1955,12353 1955,12334 1960,12311 1960,12292 1964,12268 1964,12249 1969,12226 1974,12202 1977,12183 1977,12160 1983,12136 1988,12117 1993,12094 1997,12075 2002,12051 2007,12027 2012,12008 2020,11990 2026,11966 2030,11947 2035,11923 2040,11905 2049,11886 2054,11867 2059,11848 2068,11829 2073,11809 2082,11791 2087,11772 2097,11758 2101,11739 2111,11725 2115,11706 2125,11692 2130,11678 2139,11664 2144,11649 2153,11635 2163,11620 2167,11612 2177,11597 2182,11588 2191,11579 2201,11569 2205,11560 2215,11550 2219,11541 2229,11535 2238,11527 2243,11522 2253,11517 2257,11512 2267,11508 2271,11503 2281,11503 2286,11503 2295,11498 2300,11498 2314,11498 " style="stroke:#000000;stroke-width:8;stroke-linecap:butt;stroke-linejoin:round" id="polyline36"/>
    <!-- Line -->
    <!--  polyline  -->
    <polyline points="2441,12944 2437,12944 2432,12944 2432,12939 2427,12934 2423,12930 2423,12925 2418,12920 2418,12916 2413,12906 2413,12901 2408,12892 2408,12882 2404,12873 2404,12864 2398,12854 2398,12845 2394,12831 2394,12816 2394,12807 2389,12793 2389,12779 2389,12764 2389,12750 2385,12731 2385,12717 2385,12698 2385,12684 2385,12665 2385,12646 2385,12627 2385,12608 2380,12590 2385,12571 2385,12552 2385,12533 2385,12509 2385,12490 2385,12471 2385,12448 2385,12429 2389,12405 2389,12386 2389,12363 2389,12339 2394,12320 2394,12297 2394,12272 2398,12254 2398,12230 2398,12207 2404,12188 2404,12164 2408,12141 2408,12122 2413,12098 2413,12075 2418,12056 2423,12032 2423,12013 2427,11990 2427,11971 2432,11952 2437,11933 2441,11909 2441,11890 2446,11871 2451,11853 2451,11834 2456,11820 2460,11801 2465,11782 2465,11767 2470,11749 2475,11734 2479,11720 2483,11706 2483,11692 2489,11678 2493,11664 2498,11649 2503,11640 2503,11626 2508,11616 2512,11607 2517,11597 2522,11588 2527,11579 2527,11574 2531,11564 2536,11560 2541,11555 2541,11550 2545,11545 2550,11541 2555,11535 2560,11535 2569,11535 " style="stroke:#000000;stroke-width:8;stroke-linecap:butt;stroke-linejoin:round" id="polyline38"/>
    <!-- Line -->
    <!--  polyline  -->
    <polyline points="2834,12963 2834,12958 2834,12953 2834,12949 2834,12944 2834,12939 2834,12934 2834,12930 2834,12920 2834,12911 2834,12906 2834,12897 2834,12887 2834,12873 2834,12864 2834,12854 2834,12840 2834,12826 2834,12816 2834,12802 2834,12788 2834,12769 2834,12755 2834,12741 2834,12722 2834,12708 2834,12689 2834,12670 2834,12651 2834,12632 2834,12613 2834,12594 2834,12575 2834,12556 2834,12538 2834,12514 2834,12495 2834,12471 2834,12453 2834,12429 2834,12410 2834,12386 2834,12363 2834,12344 2834,12320 2834,12297 2834,12278 2834,12254 2834,12230 2834,12212 2834,12188 2834,12164 2834,12145 2834,12122 2834,12098 2834,12079 2834,12056 2834,12037 2834,12013 2834,11994 2834,11971 2834,11952 2834,11933 2834,11914 2834,11895 2834,11876 2834,11857 2834,11838 2834,11820 2834,11801 2834,11786 2834,11767 2834,11753 2834,11739 2834,11720 2834,11706 2834,11692 2834,11682 2834,11668 2834,11654 2834,11645 2834,11635 2834,11620 2834,11612 2834,11602 2834,11597 2834,11588 2834,11579 2834,11574 2834,11569 2834,11564 2834,11560 2834,11555 2834,11550 2834,11545 " style="stroke:#000000;stroke-width:8;stroke-linecap:butt;stroke-linejoin:round" id="polyline40"/>
    <!-- Line -->
    <!--  polyline  -->
    <polyline points="3226,12944 3230,12944 3235,12944 3235,12939 3240,12934 3245,12930 3245,12925 3249,12920 3249,12916 3254,12906 3254,12901 3259,12892 3259,12882 3264,12873 3264,12864 3268,12854 3268,12845 3273,12831 3273,12816 3273,12807 3278,12793 3278,12779 3278,12764 3278,12750 3282,12731 3282,12717 3282,12698 3282,12684 3282,12665 3282,12646 3282,12627 3282,12608 3287,12590 3282,12571 3282,12552 3282,12533 3282,12509 3282,12490 3282,12471 3282,12448 3282,12429 3278,12405 3278,12386 3278,12363 3278,12339 3273,12320 3273,12297 3273,12272 3268,12254 3268,12230 3268,12207 3264,12188 3264,12164 3259,12141 3259,12122 3254,12098 3254,12075 3249,12056 3245,12032 3245,12013 3240,11990 3240,11971 3235,11952 3230,11933 3226,11909 3226,11890 3220,11871 3216,11853 3216,11834 3212,11820 3207,11801 3202,11782 3202,11767 3197,11749 3193,11734 3188,11720 3183,11706 3183,11692 3177,11678 3174,11664 3169,11649 3164,11640 3164,11626 3160,11616 3155,11607 3150,11597 3145,11588 3141,11579 3141,11574 3135,11564 3131,11560 3127,11555 3127,11550 3122,11545 3117,11541 3112,11535 3108,11535 3098,11535 " style="stroke:#000000;stroke-width:8;stroke-linecap:butt;stroke-linejoin:round" id="polyline42"/>
    <!-- Line -->
    <!--  polyline  -->
    <polyline points="3608,12897 3613,12892 3618,12892 3627,12887 3632,12882 3637,12878 3641,12873 3651,12868 3656,12864 3660,12854 3665,12849 3670,12840 3675,12831 3679,12820 3683,12812 3689,12802 3689,12788 3693,12779 3698,12764 3703,12755 3703,12741 3708,12727 3708,12712 3712,12693 3712,12679 3717,12665 3717,12646 3717,12632 3722,12613 3722,12594 3722,12575 3722,12556 3722,12538 3722,12519 3722,12500 3722,12481 3722,12462 3722,12438 3717,12420 3717,12396 3717,12377 3712,12353 3712,12334 3708,12311 3708,12292 3703,12268 3703,12249 3698,12226 3693,12202 3689,12183 3689,12160 3683,12136 3679,12117 3675,12094 3670,12075 3665,12051 3660,12027 3656,12008 3646,11990 3641,11966 3637,11947 3632,11923 3627,11905 3618,11886 3613,11867 3608,11848 3598,11829 3594,11809 3585,11791 3580,11772 3571,11758 3566,11739 3556,11725 3552,11706 3542,11692 3538,11678 3528,11664 3523,11649 3514,11635 3504,11620 3500,11612 3490,11597 3486,11588 3476,11579 3467,11569 3462,11560 3453,11550 3448,11541 3438,11535 3429,11527 3424,11522 3415,11517 3409,11512 3400,11508 3396,11503 3386,11503 3382,11503 3372,11498 3367,11498 3353,11498 " style="stroke:#000000;stroke-width:8;stroke-linecap:butt;stroke-linejoin:round" id="polyline44"/>
    <!-- Line -->
    <!--  polyline  -->
    <polyline points="3977,12807 3986,12807 3991,12802 3999,12797 4010,12793 4019,12788 4029,12779 4034,12774 4043,12764 4048,12760 4057,12750 4062,12741 4071,12731 4076,12717 4081,12708 4086,12693 4095,12684 4100,12670 4104,12656 4104,12642 4109,12627 4114,12613 4119,12599 4119,12580 4123,12566 4128,12546 4128,12533 4128,12514 4133,12495 4133,12476 4133,12457 4133,12438 4133,12420 4133,12401 4133,12382 4128,12363 4128,12339 4128,12320 4123,12301 4123,12278 4119,12259 4119,12235 4114,12216 4109,12193 4104,12174 4100,12150 4095,12127 4090,12108 4086,12083 4081,12065 4071,12041 4067,12023 4062,11998 4052,11980 4048,11956 4038,11938 4034,11919 4024,11895 4015,11876 4005,11857 3996,11838 3991,11815 3982,11796 3972,11777 3963,11763 3953,11744 3944,11725 3934,11706 3920,11692 3911,11673 3901,11659 3892,11645 3882,11626 3868,11612 3859,11597 3849,11588 3835,11574 3826,11560 3816,11550 3802,11535 3793,11527 3783,11517 3769,11508 3760,11498 3750,11489 3736,11484 3725,11475 3717,11470 3703,11465 3693,11460 3683,11456 3670,11451 3660,11446 3651,11446 3641,11442 3632,11442 3623,11442 3608,11442 3598,11442 3580,11446 " style="stroke:#000000;stroke-width:8;stroke-linecap:butt;stroke-linejoin:round" id="polyline46"/>
    <!-- Line -->
    <!--  polyline  -->
    <polyline points="4322,12689 4335,12679 4345,12675 4355,12670 4364,12660 4374,12656 4388,12646 4397,12637 4402,12627 4411,12618 4420,12608 4430,12594 4435,12585 4445,12571 4449,12561 4459,12546 4464,12533 4468,12519 4473,12504 4478,12486 4482,12471 4487,12457 4492,12438 4497,12424 4497,12405 4501,12386 4501,12367 4501,12349 4501,12330 4506,12311 4506,12292 4501,12272 4501,12254 4501,12235 4501,12216 4497,12193 4492,12174 4492,12150 4487,12131 4482,12112 4478,12089 4473,12070 4468,12046 4464,12027 4459,12004 4449,11985 4445,11961 4435,11942 4430,11923 4420,11900 4411,11881 4402,11862 4393,11838 4383,11820 4374,11801 4364,11782 4355,11763 4345,11744 4331,11725 4322,11706 4308,11687 4298,11668 4284,11649 4275,11635 4260,11616 4246,11602 4237,11583 4223,11569 4208,11555 4194,11541 4180,11527 4166,11512 4152,11498 4138,11489 4128,11475 4114,11465 4100,11451 4086,11442 4067,11432 4052,11423 4038,11413 4024,11409 4010,11399 3996,11394 3982,11385 3967,11380 3953,11375 3939,11371 3930,11371 3914,11366 3901,11366 3887,11361 3872,11361 3859,11361 3849,11361 3835,11366 3821,11366 3812,11366 3797,11371 3774,11380 " style="stroke:#000000;stroke-width:8;stroke-linecap:butt;stroke-linejoin:round" id="polyline48"/>
    <!-- Line -->
    <!--  polyline  -->
    <polyline points="4643,12523 4657,12519 4667,12509 4681,12500 4690,12490 4704,12481 4714,12471 4723,12457 4733,12448 4742,12434 4752,12420 4761,12410 4766,12396 4775,12382 4780,12363 4789,12349 4794,12334 4798,12320 4804,12301 4808,12287 4813,12268 4813,12249 4818,12230 4823,12216 4823,12197 4823,12179 4823,12160 4823,12141 4823,12117 4823,12098 4823,12079 4818,12060 4818,12041 4813,12018 4808,11998 4804,11980 4798,11956 4794,11938 4789,11919 4785,11895 4775,11876 4771,11857 4761,11834 4756,11815 4747,11796 4737,11772 4728,11753 4719,11734 4709,11716 4695,11697 4686,11678 4671,11659 4662,11640 4648,11620 4638,11602 4624,11583 4609,11564 4596,11550 4582,11531 4567,11517 4553,11498 4539,11484 4525,11470 4506,11456 4492,11442 4478,11427 4459,11413 4445,11399 4426,11390 4411,11375 4393,11366 4377,11352 4360,11342 4345,11333 4326,11323 4312,11314 4293,11309 4275,11300 4260,11295 4241,11290 4227,11281 4208,11276 4188,11271 4175,11271 4156,11267 4142,11267 4123,11262 4109,11262 4090,11262 4076,11262 4062,11262 4048,11267 4029,11267 4015,11271 3999,11271 3986,11276 3972,11281 3958,11286 3944,11295 3920,11309 " style="stroke:#000000;stroke-width:8;stroke-linecap:butt;stroke-linejoin:round" id="polyline50"/>
    <!-- Line -->
    <!--  polyline  -->
    <polyline points="4936,12316 4945,12306 4960,12297 4969,12282 4978,12268 4993,12254 5002,12245 5011,12230 5021,12216 5026,12197 5035,12183 5045,12169 5049,12150 5054,12136 5059,12117 5068,12103 5068,12083 5072,12065 5078,12046 5078,12027 5082,12008 5082,11990 5082,11971 5082,11952 5082,11933 5082,11914 5082,11895 5078,11876 5078,11857 5072,11834 5068,11815 5063,11796 5059,11777 5054,11753 5045,11734 5040,11716 5030,11697 5021,11673 5016,11654 5007,11635 4997,11616 4983,11597 4974,11579 4964,11560 4950,11541 4941,11522 4925,11503 4912,11484 4898,11470 4883,11451 4870,11432 4856,11418 4841,11399 4827,11385 4808,11371 4794,11356 4780,11338 4761,11323 4742,11309 4728,11300 4709,11286 4690,11271 4671,11262 4651,11248 4638,11238 4619,11229 4600,11220 4582,11210 4563,11201 4544,11191 4520,11186 4501,11177 4482,11172 4464,11168 4445,11163 4426,11158 4407,11153 4388,11149 4369,11149 4350,11144 4331,11144 4312,11144 4293,11144 4275,11144 4256,11144 4241,11149 4223,11149 4204,11153 4185,11153 4171,11158 4152,11163 4138,11172 4119,11177 4104,11182 4090,11191 4076,11196 4062,11205 4048,11215 4034,11224 4005,11248 " style="stroke:#000000;stroke-width:8;stroke-linecap:butt;stroke-linejoin:round" id="polyline52"/>
    <!-- Line -->
    <!--  polyline  -->
    <polyline points="5182,12051 5191,12037 5199,12018 5210,12004 5219,11990 5229,11971 5234,11956 5243,11938 5248,11919 5252,11905 5257,11886 5262,11867 5267,11848 5271,11829 5271,11809 5276,11791 5276,11772 5276,11753 5276,11734 5276,11716 5271,11697 5271,11678 5267,11659 5262,11635 5257,11616 5252,11597 5248,11579 5243,11560 5238,11541 5229,11522 5219,11498 5210,11479 5205,11460 5191,11442 5182,11423 5172,11409 5163,11390 5149,11371 5134,11352 5125,11333 5111,11319 5097,11300 5082,11286 5063,11267 5049,11253 5035,11238 5016,11224 5002,11205 4983,11191 4964,11182 4950,11168 4931,11153 4912,11139 4893,11130 4875,11116 4856,11106 4837,11097 4818,11087 4794,11078 4775,11068 4756,11059 4733,11054 4714,11045 4695,11040 4671,11035 4651,11026 4629,11021 4609,11021 4591,11016 4567,11012 4549,11012 4525,11007 4506,11007 4487,11007 4464,11007 4445,11007 4426,11007 4402,11012 4383,11012 4364,11016 4345,11021 4326,11026 4308,11030 4289,11035 4270,11045 4251,11049 4237,11059 4218,11064 4204,11072 4185,11083 4171,11092 4152,11101 4138,11111 4123,11125 4109,11134 4095,11149 4086,11158 4071,11172 4057,11186 4048,11201 4038,11215 " style="stroke:#000000;stroke-width:8;stroke-linecap:butt;stroke-linejoin:round" id="polyline54"/>
    <!-- Line -->
    <!--  polyline  -->
    <polyline points="5361,11711 5371,11692 5375,11673 5380,11654 5385,11635 5385,11616 5388,11597 5388,11579 5394,11560 5394,11541 5394,11522 5388,11503 5388,11484 5388,11465 5385,11442 5380,11423 5375,11404 5371,11385 5366,11366 5361,11346 5352,11328 5346,11309 5337,11290 5328,11271 5319,11257 5309,11238 5300,11220 5286,11201 5276,11186 5262,11168 5248,11149 5238,11134 5224,11120 5210,11101 5191,11087 5177,11072 5163,11059 5144,11045 5130,11030 5111,11016 5092,11002 5072,10993 5054,10979 5035,10969 5016,10960 4997,10945 4978,10936 4960,10927 4936,10917 4917,10912 4893,10903 4875,10898 4856,10889 4832,10883 4808,10879 4789,10875 4766,10870 4747,10865 4723,10860 4700,10860 4681,10860 4657,10856 4634,10856 4615,10856 4591,10856 4572,10860 4549,10860 4530,10860 4506,10865 4487,10870 4464,10875 4445,10879 4426,10883 4402,10889 4383,10898 4364,10903 4345,10912 4326,10922 4308,10927 4289,10936 4270,10945 4256,10960 4237,10969 4223,10979 4204,10993 4188,11007 4175,11016 4161,11030 4146,11045 4133,11059 4123,11072 4109,11087 4095,11101 4086,11120 4076,11134 4067,11153 4057,11168 4048,11186 4038,11201 4034,11220 " style="stroke:#000000;stroke-width:8;stroke-linecap:butt;stroke-linejoin:round" id="polyline56"/>
    <!-- Line -->
    <!--  polyline  -->
    <polyline points="5432,11309 5432,11290 5432,11271 5427,11253 5427,11234 5422,11215 5418,11196 5413,11177 5408,11158 5404,11139 5399,11120 5388,11101 5380,11083 5375,11064 5366,11049 5356,11030 5342,11012 5333,10997 5323,10979 5309,10964 5295,10950 5286,10931 5271,10917 5257,10903 5238,10889 5224,10875 5210,10860 5191,10851 5177,10837 5158,10823 5139,10813 5120,10804 5101,10790 5082,10780 5063,10771 5045,10761 5026,10752 5007,10747 4983,10738 4964,10733 4941,10723 4922,10719 4898,10714 4879,10709 4856,10705 4832,10705 4813,10700 4789,10700 4766,10695 4747,10695 4723,10695 4700,10695 4681,10695 4657,10700 4634,10700 4615,10705 4591,10705 4567,10709 4549,10714 4525,10719 4506,10723 4482,10733 4464,10738 4440,10747 4420,10752 4402,10761 4383,10771 4364,10780 4345,10790 4326,10804 4308,10813 4289,10823 4270,10837 4256,10851 4237,10860 4223,10875 4208,10889 4188,10903 4175,10917 4161,10931 4152,10950 4138,10964 4123,10979 4114,10997 4104,11012 4090,11030 4081,11049 4071,11064 4067,11083 4057,11101 4048,11120 4043,11139 4038,11158 4034,11177 4029,11196 4024,11215 4019,11234 " style="stroke:#000000;stroke-width:8;stroke-linecap:butt;stroke-linejoin:round" id="polyline58"/>
    <!-- Line -->
    <!--  polyline  -->
    <polyline points="5361,10908 5356,10894 5346,10875 5342,10856 5333,10841 5323,10823 5314,10809 5304,10790 5290,10775 5281,10761 5267,10747 5257,10728 5243,10714 5229,10705 5215,10690 5199,10676 5182,10662 5167,10653 5153,10643 5134,10629 5114,10620 5101,10609 5082,10601 5063,10591 5045,10582 5026,10577 5007,10567 4988,10563 4964,10558 4945,10549 4925,10544 4903,10539 4883,10539 4860,10534 4841,10534 4818,10530 4798,10530 4775,10530 4752,10530 4733,10530 4709,10530 4690,10530 4667,10534 4643,10539 4624,10539 4600,10544 4577,10549 4558,10553 4534,10563 4515,10567 4492,10577 4473,10582 4454,10591 4430,10601 4411,10609 4393,10620 4374,10629 4355,10638 4335,10653 4317,10662 4298,10676 4279,10690 4260,10700 4246,10714 4227,10728 4213,10742 4194,10761 4180,10775 4166,10790 4152,10809 4138,10823 4128,10841 4114,10856 4100,10875 4090,10889 4081,10908 4071,10927 4062,10945 4052,10964 4043,10983 4034,11002 4029,11021 4024,11040 4019,11059 4010,11078 4010,11097 4005,11116 3999,11134 3999,11153 3996,11172 3996,11191 3996,11215 3996,11234 3999,11253 " style="stroke:#000000;stroke-width:8;stroke-linecap:butt;stroke-linejoin:round" id="polyline60"/>
    <!-- Line -->
    <!--  polyline  -->
    <polyline points="5182,10567 5172,10553 5158,10539 5149,10525 5134,10516 5120,10501 5111,10487 5097,10478 5078,10468 5063,10454 5049,10445 5035,10435 5016,10426 5002,10416 4983,10412 4964,10402 4950,10398 4931,10388 4912,10383 4893,10379 4875,10374 4856,10369 4837,10369 4813,10364 4794,10364 4775,10360 4756,10360 4733,10360 4714,10360 4690,10364 4671,10364 4651,10364 4629,10369 4609,10374 4586,10379 4567,10383 4549,10388 4525,10393 4506,10398 4482,10407 4464,10412 4445,10420 4420,10431 4402,10440 4383,10449 4364,10459 4345,10473 4326,10483 4308,10497 4289,10506 4270,10520 4251,10534 4237,10549 4218,10563 4199,10577 4185,10591 4171,10605 4152,10624 4138,10638 4123,10653 4109,10671 4095,10690 4081,10705 4071,10723 4057,10742 4048,10761 4034,10780 4024,10798 4015,10818 4005,10837 3996,10856 3991,10875 3982,10894 3977,10912 3967,10931 3963,10950 3958,10969 3953,10993 3953,11012 3949,11030 3949,11049 3944,11068 3944,11087 3944,11106 3944,11125 3944,11144 3949,11163 3949,11182 3953,11201 3953,11220 3958,11238 3963,11257 3972,11276 " style="stroke:#000000;stroke-width:8;stroke-linecap:butt;stroke-linejoin:round" id="polyline62"/>
    <!-- Line -->
    <!--  polyline  -->
    <polyline points="4936,10303 4922,10289 4908,10279 4893,10270 4879,10260 4865,10251 4851,10246 4837,10237 4818,10232 4804,10227 4789,10218 4771,10213 4752,10209 4737,10209 4719,10204 4700,10204 4681,10199 4667,10199 4648,10199 4629,10199 4609,10199 4591,10199 4572,10204 4553,10204 4534,10209 4515,10213 4497,10218 4478,10223 4454,10227 4435,10232 4416,10242 4397,10246 4377,10256 4360,10265 4341,10275 4322,10284 4303,10293 4284,10303 4265,10317 4251,10327 4232,10341 4213,10355 4194,10364 4180,10379 4161,10393 4146,10412 4128,10426 4114,10440 4100,10454 4081,10473 4067,10487 4052,10506 4038,10525 4029,10539 4015,10558 3999,10577 3986,10596 3977,10615 3967,10634 3953,10653 3944,10671 3934,10690 3925,10709 3914,10728 3911,10752 3901,10771 3897,10790 3887,10809 3882,10832 3878,10851 3872,10870 3868,10889 3864,10912 3864,10931 3859,10950 3859,10969 3859,10988 3859,11007 3859,11026 3859,11045 3859,11064 3859,11083 3864,11101 3868,11120 3868,11139 3872,11158 3878,11172 3887,11191 3892,11205 3897,11224 3906,11238 3911,11253 3920,11271 3930,11286 " style="stroke:#000000;stroke-width:8;stroke-linecap:butt;stroke-linejoin:round" id="polyline64"/>
    <!-- Line -->
    <!--  polyline  -->
    <polyline points="4643,10095 4629,10086 4619,10081 4605,10071 4591,10067 4577,10062 4563,10057 4549,10057 4534,10053 4515,10048 4501,10048 4487,10048 4468,10048 4454,10048 4435,10048 4420,10053 4407,10053 4388,10057 4369,10057 4355,10062 4335,10067 4322,10071 4303,10081 4284,10086 4270,10095 4251,10100 4237,10109 4218,10119 4199,10128 4185,10138 4166,10146 4152,10161 4133,10171 4119,10185 4100,10199 4086,10213 4071,10223 4052,10242 4038,10256 4024,10270 4010,10284 3996,10303 3982,10317 3967,10335 3953,10350 3939,10369 3925,10388 3914,10407 3901,10426 3887,10440 3878,10464 3868,10483 3854,10501 3845,10520 3835,10539 3826,10558 3816,10582 3807,10601 3802,10620 3793,10638 3783,10662 3778,10681 3774,10705 3764,10723 3760,10742 3755,10766 3755,10785 3750,10804 3745,10823 3745,10846 3741,10865 3741,10883 3741,10903 3741,10922 3741,10945 3741,10964 3741,10983 3741,10997 3745,11016 3745,11035 3750,11054 3755,11068 3760,11087 3764,11101 3769,11120 3774,11134 3783,11149 3788,11163 3797,11177 3802,11191 3812,11205 3821,11220 3830,11234 3840,11243 3849,11253 3859,11267 3872,11276 3882,11286 3892,11295 3906,11304 " style="stroke:#000000;stroke-width:8;stroke-linecap:butt;stroke-linejoin:round" id="polyline66"/>
    <!-- Line -->
    <!--  polyline  -->
    <polyline points="4322,9930 4312,9930 4298,9925 4289,9920 4275,9920 4260,9916 4251,9916 4237,9916 4223,9916 4208,9916 4199,9916 4185,9920 4171,9920 4156,9925 4142,9930 4128,9934 4114,9939 4100,9944 4086,9953 4071,9958 4057,9968 4043,9977 4029,9986 4015,9996 3999,10005 3986,10015 3972,10029 3958,10038 3944,10053 3930,10062 3914,10076 3901,10090 3887,10104 3872,10123 3864,10138 3849,10152 3835,10171 3821,10185 3812,10204 3797,10223 3788,10237 3774,10256 3764,10275 3755,10293 3741,10312 3731,10331 3722,10350 3712,10374 3703,10393 3693,10412 3683,10431 3675,10454 3670,10473 3660,10497 3651,10516 3646,10539 3641,10558 3632,10577 3627,10601 3623,10620 3618,10643 3613,10662 3608,10686 3604,10705 3604,10723 3598,10747 3598,10766 3594,10785 3594,10809 3594,10827 3594,10846 3594,10865 3594,10883 3594,10903 3594,10922 3598,10941 3598,10960 3604,10974 3604,10993 3608,11007 3613,11026 3618,11040 3623,11054 3627,11068 3632,11083 3637,11097 3646,11111 3651,11125 3660,11139 3665,11149 3675,11158 3683,11172 3693,11182 3703,11191 3712,11201 3722,11205 3731,11215 3741,11220 3750,11229 3764,11234 3774,11238 " style="stroke:#000000;stroke-width:8;stroke-linecap:butt;stroke-linejoin:round" id="polyline68"/>
    <!-- Line -->
    <!--  polyline  -->
    <polyline points="3977,9812 3967,9807 3958,9807 3949,9807 3934,9807 3925,9807 3914,9807 3906,9807 3897,9812 3887,9812 3872,9816 3864,9821 3854,9826 3840,9830 3830,9840 3821,9845 3807,9854 3797,9864 3788,9868 3774,9878 3764,9892 3755,9901 3741,9911 3731,9925 3722,9934 3708,9949 3698,9963 3689,9977 3675,9991 3665,10005 3656,10024 3646,10038 3637,10053 3623,10071 3613,10090 3604,10104 3594,10123 3585,10142 3575,10161 3566,10180 3561,10199 3552,10218 3542,10242 3533,10260 3523,10279 3519,10298 3509,10322 3504,10341 3495,10364 3490,10383 3486,10407 3476,10426 3471,10449 3467,10468 3462,10492 3457,10516 3453,10534 3448,10558 3443,10577 3438,10601 3438,10620 3434,10643 3434,10662 3429,10681 3429,10705 3429,10723 3424,10742 3424,10766 3424,10785 3424,10804 3424,10823 3424,10841 3424,10860 3429,10879 3429,10894 3429,10912 3434,10931 3438,10945 3438,10960 3443,10979 3448,10993 3453,11007 3453,11021 3457,11035 3462,11045 3471,11059 3476,11072 3481,11083 3486,11092 3495,11101 3500,11111 3509,11120 3514,11130 3523,11139 3528,11144 3538,11149 3547,11158 3556,11163 3566,11163 3571,11168 3580,11172 " style="stroke:#000000;stroke-width:8;stroke-linecap:butt;stroke-linejoin:round" id="polyline70"/>
    <!-- Line -->
    <!--  polyline  -->
    <polyline points="3608,9722 3598,9722 3594,9722 3585,9722 3580,9727 3571,9727 3566,9731 3556,9731 3552,9736 3542,9741 3538,9745 3528,9755 3523,9760 3514,9764 3504,9774 3500,9783 3490,9793 3486,9802 3476,9812 3467,9826 3462,9835 3453,9849 3448,9859 3438,9872 3429,9887 3424,9901 3415,9916 3409,9934 3400,9949 3396,9963 3386,9982 3382,10001 3372,10015 3367,10034 3358,10053 3353,10071 3349,10090 3339,10109 3334,10128 3330,10152 3325,10171 3315,10190 3311,10213 3306,10232 3301,10256 3297,10275 3292,10298 3287,10317 3282,10341 3278,10360 3273,10383 3268,10407 3264,10426 3264,10449 3259,10473 3254,10492 3254,10516 3249,10534 3249,10558 3245,10582 3245,10601 3245,10624 3240,10643 3240,10662 3240,10686 3240,10705 3240,10723 3240,10742 3240,10761 3240,10780 3240,10798 3240,10818 3240,10837 3240,10856 3245,10870 3245,10889 3245,10903 3249,10917 3249,10936 3254,10950 3254,10964 3259,10979 3264,10988 3264,11002 3268,11016 3273,11026 3278,11035 3282,11045 3287,11054 3292,11064 3297,11072 3301,11083 3306,11087 3311,11092 3315,11101 3320,11106 3330,11106 3334,11111 3339,11116 3349,11116 3353,11120 " style="stroke:#000000;stroke-width:8;stroke-linecap:butt;stroke-linejoin:round" id="polyline72"/>
    <!-- Line -->
    <!--  polyline  -->
    <polyline points="3226,9675 3220,9675 3216,9675 3212,9675 3212,9679 3207,9679 3202,9683 3197,9689 3197,9694 3193,9698 3188,9703 3183,9712 3177,9717 3177,9727 3174,9736 3169,9745 3164,9755 3160,9764 3160,9779 3155,9788 3150,9802 3145,9816 3141,9830 3135,9845 3135,9859 3131,9872 3127,9887 3122,9906 3122,9920 3117,9939 3112,9958 3108,9972 3108,9991 3103,10010 3098,10029 3093,10048 3093,10071 3089,10090 3084,10109 3084,10133 3079,10152 3079,10171 3075,10194 3070,10218 3070,10237 3065,10260 3065,10279 3060,10303 3060,10327 3056,10345 3056,10369 3056,10393 3051,10412 3051,10435 3051,10459 3046,10478 3046,10501 3046,10525 3041,10544 3041,10567 3041,10586 3041,10609 3041,10629 3041,10653 3041,10671 3037,10690 3037,10709 3037,10728 3037,10747 3037,10766 3041,10785 3041,10804 3041,10823 3041,10837 3041,10856 3041,10870 3041,10889 3046,10903 3046,10917 3046,10931 3051,10945 3051,10960 3051,10969 3056,10983 3056,10993 3060,11002 3060,11012 3060,11021 3065,11030 3065,11040 3070,11049 3075,11054 3075,11059 3079,11064 3079,11068 3084,11072 3089,11078 3089,11083 3093,11083 3098,11083 " style="stroke:#000000;stroke-width:8;stroke-linecap:butt;stroke-linejoin:round" id="polyline74"/>
    <!-- Line -->
    <!--  polyline  -->
    <polyline points="2834,9656 2834,9660 2834,9665 2834,9670 2834,9675 2834,9679 2834,9683 2834,9689 2834,9698 2834,9708 2834,9712 2834,9722 2834,9731 2834,9745 2834,9755 2834,9764 2834,9779 2834,9793 2834,9802 2834,9816 2834,9830 2834,9849 2834,9864 2834,9878 2834,9897 2834,9911 2834,9930 2834,9949 2834,9968 2834,9986 2834,10005 2834,10024 2834,10043 2834,10062 2834,10081 2834,10104 2834,10123 2834,10146 2834,10166 2834,10190 2834,10209 2834,10232 2834,10256 2834,10275 2834,10298 2834,10322 2834,10341 2834,10364 2834,10388 2834,10407 2834,10431 2834,10454 2834,10473 2834,10497 2834,10520 2834,10539 2834,10563 2834,10582 2834,10605 2834,10624 2834,10648 2834,10667 2834,10686 2834,10705 2834,10723 2834,10742 2834,10761 2834,10780 2834,10798 2834,10818 2834,10832 2834,10851 2834,10865 2834,10879 2834,10898 2834,10912 2834,10927 2834,10936 2834,10950 2834,10964 2834,10974 2834,10983 2834,10997 2834,11007 2834,11016 2834,11021 2834,11030 2834,11040 2834,11045 2834,11049 2834,11054 2834,11059 2834,11064 2834,11068 2834,11072 " style="stroke:#000000;stroke-width:8;stroke-linecap:butt;stroke-linejoin:round" id="polyline76"/>
    <!-- Line -->
    <!--  polyline  -->
    <polyline points="2441,9675 2446,9675 2451,9675 2456,9675 2456,9679 2460,9679 2465,9683 2470,9689 2470,9694 2475,9698 2479,9703 2483,9712 2489,9717 2489,9727 2493,9736 2498,9745 2503,9755 2508,9764 2508,9779 2512,9788 2517,9802 2522,9816 2527,9830 2531,9845 2531,9859 2536,9872 2541,9887 2545,9906 2545,9920 2550,9939 2555,9958 2560,9972 2560,9991 2564,10010 2569,10029 2574,10048 2574,10071 2578,10090 2583,10109 2583,10133 2588,10152 2588,10171 2593,10194 2597,10218 2597,10237 2602,10260 2602,10279 2607,10303 2607,10327 2612,10345 2612,10369 2612,10393 2616,10412 2616,10435 2616,10459 2621,10478 2621,10501 2621,10525 2626,10544 2626,10567 2626,10586 2626,10609 2626,10629 2626,10653 2626,10671 2630,10690 2630,10709 2630,10728 2630,10747 2630,10766 2626,10785 2626,10804 2626,10823 2626,10837 2626,10856 2626,10870 2626,10889 2621,10903 2621,10917 2621,10931 2616,10945 2616,10960 2616,10969 2612,10983 2612,10993 2607,11002 2607,11012 2607,11021 2602,11030 2602,11040 2597,11049 2593,11054 2593,11059 2588,11064 2588,11068 2583,11072 2578,11078 2578,11083 2574,11083 2569,11083 " style="stroke:#000000;stroke-width:8;stroke-linecap:butt;stroke-linejoin:round" id="polyline78"/>
    <!-- Line -->
    <!--  polyline  -->
    <polyline points="2059,9722 2068,9722 2073,9722 2082,9722 2087,9727 2097,9727 2101,9731 2111,9731 2115,9736 2125,9741 2130,9745 2139,9755 2144,9760 2153,9764 2163,9774 2167,9783 2177,9793 2182,9802 2191,9812 2201,9826 2205,9835 2215,9849 2219,9859 2229,9872 2238,9887 2243,9901 2253,9916 2257,9934 2267,9949 2271,9963 2281,9982 2286,10001 2295,10015 2300,10034 2309,10053 2314,10071 2319,10090 2328,10109 2333,10128 2338,10152 2342,10171 2352,10190 2356,10213 2361,10232 2366,10256 2371,10275 2375,10298 2380,10317 2385,10341 2389,10360 2394,10383 2398,10407 2404,10426 2404,10449 2408,10473 2413,10492 2413,10516 2418,10534 2418,10558 2423,10582 2423,10601 2423,10624 2427,10643 2427,10662 2427,10686 2427,10705 2427,10723 2427,10742 2427,10761 2427,10780 2427,10798 2427,10818 2427,10837 2427,10856 2423,10870 2423,10889 2423,10903 2418,10917 2418,10936 2413,10950 2413,10964 2408,10979 2404,10988 2404,11002 2398,11016 2394,11026 2389,11035 2385,11045 2380,11054 2375,11064 2371,11072 2366,11083 2361,11087 2356,11092 2352,11101 2347,11106 2338,11106 2333,11111 2328,11116 2319,11116 2314,11120 " style="stroke:#000000;stroke-width:8;stroke-linecap:butt;stroke-linejoin:round" id="polyline80"/>
    <!-- Line -->
    <!--  polyline  -->
    <polyline points="1690,9812 1700,9807 1709,9807 1719,9807 1733,9807 1742,9807 1752,9807 1761,9807 1771,9812 1780,9812 1794,9816 1804,9821 1813,9826 1827,9830 1837,9840 1846,9845 1860,9854 1870,9864 1879,9868 1893,9878 1903,9892 1912,9901 1927,9911 1935,9925 1945,9934 1960,9949 1969,9963 1977,9977 1993,9991 2002,10005 2012,10024 2020,10038 2030,10053 2045,10071 2054,10090 2064,10104 2073,10123 2082,10142 2092,10161 2101,10180 2106,10199 2115,10218 2125,10242 2134,10260 2144,10279 2149,10298 2158,10322 2163,10341 2172,10364 2177,10383 2182,10407 2191,10426 2196,10449 2201,10468 2205,10492 2209,10516 2215,10534 2219,10558 2224,10577 2229,10601 2229,10620 2234,10643 2234,10662 2238,10681 2238,10705 2238,10723 2243,10742 2243,10766 2243,10785 2243,10804 2243,10823 2243,10841 2243,10860 2238,10879 2238,10894 2238,10912 2234,10931 2229,10945 2229,10960 2224,10979 2219,10993 2215,11007 2215,11021 2209,11035 2205,11045 2196,11059 2191,11072 2186,11083 2182,11092 2172,11101 2167,11111 2158,11120 2153,11130 2144,11139 2139,11144 2130,11149 2120,11158 2111,11163 2101,11163 2097,11168 2087,11172 " style="stroke:#000000;stroke-width:8;stroke-linecap:butt;stroke-linejoin:round" id="polyline82"/>
    <!-- Line -->
    <!--  polyline  -->
    <polyline points="1345,9930 1355,9930 1369,9925 1378,9920 1393,9920 1407,9916 1416,9916 1430,9916 1445,9916 1459,9916 1468,9916 1482,9920 1497,9920 1511,9925 1525,9930 1539,9934 1553,9939 1567,9944 1582,9953 1596,9958 1610,9968 1624,9977 1638,9986 1653,9996 1667,10005 1681,10015 1695,10029 1709,10038 1723,10053 1738,10062 1752,10076 1766,10090 1780,10104 1794,10123 1804,10138 1818,10152 1832,10171 1846,10185 1856,10204 1870,10223 1879,10237 1893,10256 1903,10275 1912,10293 1927,10312 1935,10331 1945,10350 1955,10374 1964,10393 1974,10412 1983,10431 1993,10454 1997,10473 2007,10497 2016,10516 2020,10539 2026,10558 2035,10577 2040,10601 2045,10620 2049,10643 2054,10662 2059,10686 2064,10705 2064,10723 2068,10747 2068,10766 2073,10785 2073,10809 2073,10827 2073,10846 2073,10865 2073,10883 2073,10903 2073,10922 2068,10941 2068,10960 2064,10974 2064,10993 2059,11007 2054,11026 2049,11040 2045,11054 2040,11068 2035,11083 2030,11097 2020,11111 2016,11125 2007,11139 2002,11149 1993,11158 1983,11172 1974,11182 1964,11191 1955,11201 1945,11205 1935,11215 1927,11220 1917,11229 1903,11234 1893,11238 " style="stroke:#000000;stroke-width:8;stroke-linecap:butt;stroke-linejoin:round" id="polyline84"/>
    <!-- Line -->
    <!--  polyline  -->
    <polyline points="1024,10095 1038,10086 1048,10081 1062,10071 1076,10067 1090,10062 1104,10057 1119,10057 1133,10053 1152,10048 1166,10048 1180,10048 1198,10048 1213,10048 1232,10048 1246,10053 1260,10053 1279,10057 1298,10057 1312,10062 1331,10067 1345,10071 1364,10081 1383,10086 1397,10095 1416,10100 1430,10109 1449,10119 1468,10128 1482,10138 1501,10146 1516,10161 1534,10171 1549,10185 1567,10199 1582,10213 1596,10223 1615,10242 1629,10256 1643,10270 1657,10284 1671,10303 1686,10317 1700,10335 1714,10350 1728,10369 1742,10388 1752,10407 1766,10426 1780,10440 1788,10464 1799,10483 1813,10501 1823,10520 1832,10539 1842,10558 1851,10582 1860,10601 1865,10620 1875,10638 1884,10662 1889,10681 1893,10705 1903,10723 1908,10742 1912,10766 1912,10785 1917,10804 1922,10823 1922,10846 1927,10865 1927,10883 1927,10903 1927,10922 1927,10945 1927,10964 1927,10983 1927,10997 1922,11016 1922,11035 1917,11054 1912,11068 1908,11087 1903,11101 1898,11120 1893,11134 1884,11149 1879,11163 1870,11177 1865,11191 1856,11205 1846,11220 1837,11234 1827,11243 1818,11253 1808,11267 1794,11276 1785,11286 1775,11295 1761,11304 " style="stroke:#000000;stroke-width:8;stroke-linecap:butt;stroke-linejoin:round" id="polyline86"/>
    <!-- Line -->
    <!--  polyline  -->
    <polyline points="731,10303 745,10289 760,10279 774,10270 788,10260 802,10251 816,10246 831,10237 849,10232 864,10227 878,10218 897,10213 916,10209 930,10209 949,10204 967,10204 986,10199 1001,10199 1019,10199 1038,10199 1057,10199 1076,10199 1095,10204 1114,10204 1133,10209 1152,10213 1171,10218 1190,10223 1213,10227 1232,10232 1251,10242 1270,10246 1289,10256 1308,10265 1327,10275 1345,10284 1364,10293 1383,10303 1402,10317 1416,10327 1435,10341 1454,10355 1472,10364 1487,10379 1506,10393 1520,10412 1539,10426 1553,10440 1567,10454 1586,10473 1601,10487 1615,10506 1629,10525 1638,10539 1653,10558 1667,10577 1681,10596 1690,10615 1700,10634 1714,10653 1723,10671 1733,10690 1742,10709 1752,10728 1756,10752 1766,10771 1771,10790 1780,10809 1785,10832 1788,10851 1794,10870 1799,10889 1804,10912 1804,10931 1808,10950 1808,10969 1808,10988 1808,11007 1808,11026 1808,11045 1808,11064 1808,11083 1804,11101 1799,11120 1799,11139 1794,11158 1788,11172 1780,11191 1775,11205 1771,11224 1761,11238 1756,11253 1746,11271 1738,11286 " style="stroke:#000000;stroke-width:8;stroke-linecap:butt;stroke-linejoin:round" id="polyline88"/>
    <!-- Line -->
    <!--  polyline  -->
    <polyline points="486,10567 495,10553 509,10539 519,10525 533,10516 546,10501 556,10487 571,10478 590,10468 604,10454 618,10445 632,10435 651,10426 665,10416 684,10412 703,10402 717,10398 735,10388 755,10383 774,10379 793,10374 812,10369 831,10369 854,10364 873,10364 892,10360 911,10360 934,10360 953,10360 977,10364 996,10364 1015,10364 1038,10369 1057,10374 1081,10379 1100,10383 1119,10388 1142,10393 1161,10398 1185,10407 1204,10412 1223,10420 1246,10431 1265,10440 1283,10449 1303,10459 1322,10473 1341,10483 1360,10497 1378,10506 1397,10520 1416,10534 1430,10549 1449,10563 1468,10577 1482,10591 1497,10605 1516,10624 1530,10638 1544,10653 1558,10671 1572,10690 1586,10705 1596,10723 1610,10742 1619,10761 1634,10780 1643,10798 1653,10818 1662,10837 1671,10856 1676,10875 1686,10894 1690,10912 1700,10931 1704,10950 1709,10969 1714,10993 1714,11012 1719,11030 1719,11049 1723,11068 1723,11087 1723,11106 1723,11125 1723,11144 1719,11163 1719,11182 1714,11201 1714,11220 1709,11238 1704,11257 1695,11276 " style="stroke:#000000;stroke-width:8;stroke-linecap:butt;stroke-linejoin:round" id="polyline90"/>
    <!-- Line -->
    <!--  polyline  -->
    <polyline points="306,10908 311,10894 320,10875 325,10856 334,10841 344,10823 353,10809 363,10790 377,10775 386,10761 401,10747 410,10728 424,10714 438,10705 453,10690 467,10676 486,10662 500,10653 514,10643 533,10629 552,10620 566,10609 585,10601 604,10591 623,10582 642,10577 660,10567 679,10563 703,10558 722,10549 741,10544 764,10539 783,10539 807,10534 826,10534 849,10530 868,10530 892,10530 916,10530 934,10530 958,10530 977,10530 1001,10534 1024,10539 1043,10539 1067,10544 1090,10549 1109,10553 1133,10563 1152,10567 1175,10577 1194,10582 1213,10591 1237,10601 1256,10609 1275,10620 1293,10629 1312,10638 1331,10653 1350,10662 1369,10676 1388,10690 1407,10700 1421,10714 1440,10728 1454,10742 1472,10761 1487,10775 1501,10790 1516,10809 1530,10823 1539,10841 1553,10856 1567,10875 1577,10889 1586,10908 1596,10927 1605,10945 1615,10964 1624,10983 1634,11002 1638,11021 1643,11040 1648,11059 1657,11078 1657,11097 1662,11116 1667,11134 1667,11153 1671,11172 1671,11191 1671,11215 1671,11234 1667,11253 " style="stroke:#000000;stroke-width:8;stroke-linecap:butt;stroke-linejoin:round" id="polyline92"/>
    <!-- Line -->
    <!--  polyline  -->
    <polyline points="235,11309 235,11290 235,11271 240,11253 240,11234 245,11215 249,11196 254,11177 259,11158 264,11139 268,11120 278,11101 287,11083 292,11064 301,11049 311,11030 325,11012 334,10997 344,10979 358,10964 372,10950 382,10931 396,10917 410,10903 429,10889 443,10875 457,10860 476,10851 490,10837 509,10823 528,10813 546,10804 566,10790 585,10780 604,10771 623,10761 642,10752 660,10747 684,10738 703,10733 727,10723 745,10719 769,10714 788,10709 812,10705 835,10705 854,10700 878,10700 901,10695 920,10695 944,10695 967,10695 986,10695 1009,10700 1034,10700 1053,10705 1076,10705 1100,10709 1119,10714 1142,10719 1161,10723 1185,10733 1204,10738 1227,10747 1246,10752 1265,10761 1283,10771 1303,10780 1322,10790 1341,10804 1360,10813 1378,10823 1397,10837 1412,10851 1430,10860 1445,10875 1459,10889 1478,10903 1492,10917 1506,10931 1516,10950 1530,10964 1544,10979 1553,10997 1563,11012 1577,11030 1586,11049 1596,11064 1601,11083 1610,11101 1619,11120 1624,11139 1629,11158 1634,11177 1638,11196 1643,11215 1648,11234 " style="stroke:#000000;stroke-width:8;stroke-linecap:butt;stroke-linejoin:round" id="polyline94"/>
    <!-- Line -->
    <!--  polyline  -->
    <polyline points="306,11711 297,11692 292,11673 287,11654 282,11635 282,11616 278,11597 278,11579 272,11560 272,11541 272,11522 278,11503 278,11484 278,11465 282,11442 287,11423 292,11404 297,11385 301,11366 306,11346 316,11328 320,11309 330,11290 339,11271 349,11257 358,11238 367,11220 382,11201 391,11186 405,11168 419,11149 429,11134 443,11120 457,11101 476,11087 490,11072 504,11059 523,11045 538,11030 556,11016 575,11002 594,10993 613,10979 632,10969 651,10960 670,10945 689,10936 708,10927 731,10917 750,10912 774,10903 793,10898 812,10889 835,10883 859,10879 878,10875 901,10870 920,10865 944,10860 967,10860 986,10860 1009,10856 1034,10856 1053,10856 1076,10856 1095,10860 1119,10860 1138,10860 1161,10865 1180,10870 1204,10875 1223,10879 1241,10883 1265,10889 1283,10898 1303,10903 1322,10912 1341,10922 1360,10927 1378,10936 1397,10945 1412,10960 1430,10969 1445,10979 1464,10993 1478,11007 1492,11016 1506,11030 1520,11045 1534,11059 1544,11072 1558,11087 1572,11101 1582,11120 1591,11134 1601,11153 1610,11168 1619,11186 1629,11201 1634,11220 " style="stroke:#000000;stroke-width:8;stroke-linecap:butt;stroke-linejoin:round" id="polyline96"/>
    <!-- Line -->
    <!--  polyline  -->
    <polyline points="486,12051 476,12037 467,12018 457,12004 448,11990 438,11971 434,11956 424,11938 419,11919 415,11905 410,11886 405,11867 401,11848 396,11829 396,11809 391,11791 391,11772 391,11753 391,11734 391,11716 396,11697 396,11678 401,11659 405,11635 410,11616 415,11597 419,11579 424,11560 429,11541 438,11522 448,11498 457,11479 462,11460 476,11442 486,11423 495,11409 504,11390 519,11371 533,11352 542,11333 556,11319 571,11300 585,11286 604,11267 618,11253 632,11238 651,11224 665,11205 684,11191 703,11182 717,11168 735,11153 755,11139 774,11130 793,11116 812,11106 831,11097 849,11087 873,11078 892,11068 911,11059 934,11054 953,11045 972,11040 996,11035 1015,11026 1038,11021 1057,11021 1076,11016 1100,11012 1119,11012 1142,11007 1161,11007 1180,11007 1204,11007 1223,11007 1241,11007 1265,11012 1283,11012 1303,11016 1322,11021 1341,11026 1360,11030 1378,11035 1397,11045 1416,11049 1430,11059 1449,11064 1464,11072 1482,11083 1497,11092 1516,11101 1530,11111 1544,11125 1558,11134 1572,11149 1582,11158 1596,11172 1610,11186 1629,11215 " style="stroke:#000000;stroke-width:8;stroke-linecap:butt;stroke-linejoin:round" id="polyline98"/>
    <!-- Line -->
    <!--  polyline  -->
    <polyline points="731,12316 722,12306 708,12297 698,12282 689,12268 675,12254 665,12245 656,12230 646,12216 642,12197 632,12183 623,12169 618,12150 613,12136 608,12117 599,12103 599,12083 594,12065 590,12046 590,12027 585,12008 585,11990 585,11971 585,11952 585,11933 585,11914 585,11895 590,11876 590,11857 594,11834 599,11815 604,11796 608,11777 613,11753 623,11734 627,11716 637,11697 646,11673 651,11654 660,11635 670,11616 684,11597 693,11579 703,11560 717,11541 727,11522 741,11503 755,11484 769,11470 783,11451 797,11432 812,11418 826,11399 840,11385 859,11371 873,11356 887,11338 906,11323 925,11309 939,11300 958,11286 977,11271 996,11262 1015,11248 1029,11238 1048,11229 1067,11220 1086,11210 1104,11201 1123,11191 1147,11186 1166,11177 1185,11172 1204,11168 1223,11163 1241,11158 1260,11153 1279,11149 1298,11149 1317,11144 1336,11144 1355,11144 1374,11144 1393,11144 1412,11144 1426,11149 1445,11149 1464,11153 1482,11153 1497,11158 1516,11163 1530,11172 1549,11177 1563,11182 1577,11191 1591,11196 1605,11205 1619,11215 1634,11224 1648,11234 1662,11248 " style="stroke:#000000;stroke-width:8;stroke-linecap:butt;stroke-linejoin:round" id="polyline100"/>
    <!-- Line -->
    <!--  polyline  -->
    <polyline points="1024,12523 1009,12519 1001,12509 986,12500 977,12490 963,12481 953,12471 944,12457 934,12448 925,12434 916,12420 906,12410 901,12396 892,12382 887,12363 878,12349 873,12334 868,12320 864,12301 859,12287 854,12268 854,12249 849,12230 845,12216 845,12197 845,12179 845,12160 845,12141 845,12117 845,12098 845,12079 849,12060 849,12041 854,12018 859,11998 864,11980 868,11956 873,11938 878,11919 882,11895 892,11876 897,11857 906,11834 911,11815 920,11796 930,11772 939,11753 949,11734 958,11716 972,11697 982,11678 996,11659 1005,11640 1019,11620 1029,11602 1043,11583 1057,11564 1071,11550 1086,11531 1100,11517 1114,11498 1128,11484 1142,11470 1161,11456 1175,11442 1190,11427 1208,11413 1223,11399 1241,11390 1256,11375 1275,11366 1289,11352 1308,11342 1322,11333 1341,11323 1355,11314 1374,11309 1393,11300 1407,11295 1426,11290 1440,11281 1459,11276 1478,11271 1492,11271 1511,11267 1525,11267 1544,11262 1558,11262 1577,11262 1591,11262 1605,11262 1619,11267 1638,11267 1653,11271 1667,11271 1681,11276 1695,11281 1709,11286 1723,11295 1746,11309 " style="stroke:#000000;stroke-width:8;stroke-linecap:butt;stroke-linejoin:round" id="polyline102"/>
    <!-- Line -->
    <!--  polyline  -->
    <polyline points="1345,12689 1331,12679 1322,12675 1312,12670 1303,12660 1293,12656 1279,12646 1270,12637 1265,12627 1256,12618 1246,12608 1237,12594 1232,12585 1223,12571 1218,12561 1208,12546 1204,12533 1198,12519 1194,12504 1190,12486 1185,12471 1180,12457 1175,12438 1171,12424 1171,12405 1166,12386 1166,12367 1166,12349 1166,12330 1161,12311 1161,12292 1166,12272 1166,12254 1166,12235 1166,12216 1171,12193 1175,12174 1175,12150 1180,12131 1185,12112 1190,12089 1194,12070 1198,12046 1204,12027 1208,12004 1218,11985 1223,11961 1232,11942 1237,11923 1246,11900 1256,11881 1265,11862 1275,11838 1283,11820 1293,11801 1303,11782 1312,11763 1322,11744 1336,11725 1345,11706 1360,11687 1369,11668 1383,11649 1393,11635 1407,11616 1421,11602 1430,11583 1445,11569 1459,11555 1472,11541 1487,11527 1501,11512 1516,11498 1530,11489 1539,11475 1553,11465 1567,11451 1582,11442 1601,11432 1615,11423 1629,11413 1643,11409 1657,11399 1671,11394 1686,11385 1700,11380 1714,11375 1728,11371 1738,11371 1752,11366 1766,11366 1780,11361 1794,11361 1808,11361 1818,11361 1832,11366 1846,11366 1856,11366 1870,11371 1893,11380 " style="stroke:#000000;stroke-width:8;stroke-linecap:butt;stroke-linejoin:round" id="polyline104"/>
  </g>
</svg>